<?xml version="1.0" standalone="no"?>
<!DOCTYPE svg PUBLIC "-//W3C//DTD SVG 20010904//EN"
 "http://www.w3.org/TR/2001/REC-SVG-20010904/DTD/svg10.dtd">
<svg version="1.0" xmlns="http://www.w3.org/2000/svg"
 width="128.000000pt" height="128.000000pt" viewBox="0 0 128.000000 128.000000"
 preserveAspectRatio="xMidYMid meet">
<metadata>
Created by potrace 1.11, written by Peter Selinger 2001-2013
</metadata>
<g transform="translate(0.000000,128.000000) scale(0.100000,-0.100000)"
fill="#000000" stroke="none">
<path d="M604 1270 c-5 -5 -70 -43 -144 -85 -74 -42 -142 -80 -150 -85 -46
-30 -92 -50 -100 -45 -5 3 -12 0 -16 -6 -4 -8 -3 -9 4 -5 7 4 12 5 12 2 0 -2
-24 -18 -54 -35 -30 -17 -56 -37 -58 -44 -2 -6 -3 -37 -2 -67 1 -30 5 -147 9
-260 4 -113 8 -226 9 -252 0 -25 5 -50 9 -55 11 -11 97 -60 129 -74 16 -6 28
-15 28 -20 0 -5 8 -9 18 -9 23 -1 54 -25 44 -35 -4 -5 -2 -5 5 -1 13 7 83 -23
83 -36 0 -4 7 -8 16 -8 9 0 62 -24 118 -54 l101 -54 108 69 c59 38 112 69 116
69 5 0 11 4 13 8 6 15 80 52 91 46 7 -4 9 -4 5 1 -4 4 6 18 23 31 25 18 36 21
58 13 23 -8 24 -8 8 5 -17 13 -17 14 0 20 10 4 20 7 22 6 2 -1 8 4 12 12 7 11
11 10 19 -2 9 -13 10 -13 8 1 -2 9 8 25 21 36 l25 20 -3 303 c-1 167 -4 306
-6 311 -5 6 -47 29 -220 118 -22 11 -83 40 -135 65 -52 24 -123 58 -156 74
-34 17 -66 26 -70 22z"/>
<path d="M1100 301 c0 -5 11 -8 25 -8 30 0 28 6 -4 12 -11 2 -21 0 -21 -4z"/>
<path d="M1043 273 c-15 -5 -17 -23 -4 -23 5 0 11 7 15 15 3 8 4 15 3 14 -1 0
-8 -3 -14 -6z"/>
</g>
</svg>
